<?xml version="1.0" encoding="UTF-8" standalone="no"?>
<!-- Created with Inkscape (http://www.inkscape.org/) -->

<svg
   width="512"
   height="512"
   viewBox="0 0 135.46667 135.46666"
   version="1.1"
   id="svg1"
   inkscape:version="1.3.2 (091e20e, 2023-11-25, custom)"
   sodipodi:docname="LogoDiniaNails.svg"
   xmlns:inkscape="http://www.inkscape.org/namespaces/inkscape"
   xmlns:sodipodi="http://sodipodi.sourceforge.net/DTD/sodipodi-0.dtd"
   xmlns="http://www.w3.org/2000/svg"
   xmlns:svg="http://www.w3.org/2000/svg">
  <sodipodi:namedview
     id="namedview1"
     pagecolor="#ffffff"
     bordercolor="#000000"
     borderopacity="0.25"
     inkscape:showpageshadow="2"
     inkscape:pageopacity="0.0"
     inkscape:pagecheckerboard="0"
     inkscape:deskcolor="#d1d1d1"
     inkscape:document-units="mm"
     inkscape:zoom="0.97890839"
     inkscape:cx="446.9264"
     inkscape:cy="295.73758"
     inkscape:window-width="1920"
     inkscape:window-height="991"
     inkscape:window-x="-9"
     inkscape:window-y="-9"
     inkscape:window-maximized="1"
     inkscape:current-layer="g3" />
  <defs
     id="defs1" />
  <g
     inkscape:label="Capa 1"
     inkscape:groupmode="layer"
     id="layer1">
    <g
       id="g3"
       transform="matrix(1.5484783,0,0,1.5048857,-182.80459,-268.46589)">
      <ellipse
         style="display:inline;fill:#ffffff;fill-rule:evenodd;stroke-width:0.157401"
         id="path11"
         cx="67.571014"
         cy="69.057579"
         rx="64.597878"
         ry="64.192474"
         transform="matrix(0.6457953,0,0,0.6645023,118.05434,178.3962)" />
      <g
         id="g2"
         inkscape:label="Mano"
         style="display:inline"
         transform="matrix(0.21058875,0,0,0.20895881,95.401903,150.77701)">
        <path
           style="fill:#000000;fill-opacity:1;stroke-width:2.94582;image-rendering:optimizeSpeed"
           d="m 335.12744,456.90165 c -10.92053,-10.58775 -29.02457,-19.16607 -47.88291,-22.68853 -3.60615,-0.67359 -14.82972,-2.09106 -24.94128,-3.14993 -25.18587,-2.63749 -31.45027,-4.10377 -44.88471,-10.50592 -7.0581,-3.3635 -10.09067,-5.36525 -14.5996,-9.63692 -2.40141,-2.27506 -0.96829,-2.44241 2.67834,-0.31273 21.24569,12.40773 28.328,14.46801 60.80103,17.68738 24.50813,2.42974 36.51108,5.45507 51.59214,13.00385 8.41229,4.21072 14.48307,8.58341 21.79692,15.70004 4.74498,4.61704 6.06329,6.60891 11.20121,16.92414 3.20278,6.43017 6.99314,14.23406 8.42298,17.34198 2.4101,5.23861 2.48866,5.65076 1.07699,5.65076 -4.48294,0 -9.42238,-24.65792 -25.26111,-40.01412 z m 88.9419,23.42548 c -0.70129,-1.83619 -1.27504,-3.73518 -1.27504,-4.21998 0,-1.87142 -6.51542,-21.00511 -9.72203,-28.55038 -5.66222,-13.32347 -8.90834,-25.32079 -10.11168,-37.37182 -0.36321,-3.63743 -0.21681,-4.59188 0.76241,-4.96762 0.66661,-0.2557 1.36091,-0.31617 1.5429,-0.13403 0.18206,0.18205 0.70229,3.64504 1.15618,7.6956 1.08171,9.65292 3.80594,19.74574 8.24723,30.55445 5.99613,14.59268 12.02207,34.24845 12.02207,39.21434 0,2.21396 -1.3724,1.05177 -2.62204,-2.22042 z m -15.0773,-11.6549 c -0.89252,-0.97018 -3.3648,-5.27137 -5.49392,-9.55816 -2.12912,-4.28675 -6.55006,-12.27688 -9.82431,-17.75578 -3.27425,-5.47893 -5.95315,-10.18626 -5.95315,-10.46072 0,-0.27455 -0.47539,-1.05281 -1.05646,-1.72958 -0.58103,-0.67677 -3.29923,-5.55593 -6.04046,-10.84259 -8.56361,-16.51565 -21.16589,-28.10046 -36.16061,-33.24118 -10.07329,-3.45351 -17.67945,-3.59352 -43.2575,-0.79623 -17.22333,1.88359 -18.76431,1.67105 -30.4069,-4.1942 -9.33843,-4.70444 -14.1171,-8.04689 -13.04188,-9.12211 0.27809,-0.27809 4.46825,1.51279 9.31165,3.97962 10.42457,5.3094 16.12915,7.39045 20.2589,7.39045 1.66368,0 8.8037,-0.71407 15.86671,-1.58683 26.02243,-3.21548 37.06834,-2.15357 50.17332,4.8234 6.61587,3.52223 13.87207,9.08246 18.30037,14.02307 4.93263,5.50326 8.78358,10.99666 9.756,13.91694 0.49961,1.50036 1.68235,4.01951 2.62835,5.59808 0.94599,1.57858 3.95835,6.66427 6.69416,11.30152 2.73579,4.63725 5.77749,9.69794 6.7593,11.24593 4.36388,6.88047 14.47016,27.41141 13.81543,28.06615 -0.42205,0.42205 -1.35923,-0.003 -2.329,-1.05778 z m 63.06537,-5.46388 c -0.8471,-1.82317 -2.15439,-5.24391 -2.90508,-7.60163 -0.75071,-2.35771 -1.66742,-4.98824 -2.03712,-5.84562 -0.99495,-2.30737 -3.69647,-13.50393 -4.23131,-17.53682 -0.47838,-3.60716 1.4157,-20.56297 2.91671,-26.11039 0.46397,-1.7147 0.90163,-3.81914 0.97256,-4.67649 0.071,-0.85735 0.35315,-2.43566 0.62711,-3.50738 0.27396,-1.07169 1.08279,-4.7544 1.79742,-8.18384 2.3254,-11.15932 5.85049,-24.82468 7.80147,-30.24323 3.59054,-9.97218 3.34657,-15.91935 -0.91037,-22.19233 -2.34585,-3.4568 -2.33842,-4.36281 0.0309,-3.76814 2.32239,0.58289 2.80203,-0.53558 1.80143,-4.20095 -1.20234,-4.40429 -3.09765,-6.33318 -11.48761,-11.69122 -13.30948,-8.49975 -21.313,-14.13189 -29.34057,-20.64725 -10.05055,-8.15721 -11.59687,-9.59385 -10.98493,-10.20582 1.35219,-1.35216 4.81565,0.70838 12.61329,7.50421 1.74275,1.51884 4.92232,4.16957 7.0657,5.89052 7.23826,5.81172 24.8461,16.64421 25.68725,15.80306 0.58969,-0.5897 -5.7873,-7.60729 -9.46386,-10.41457 -5.9107,-4.51314 -10.62498,-9.13201 -15.22559,-14.91736 -8.58408,-10.79469 -26.33256,-27.54539 -32.4548,-30.63028 -4.89209,-2.465 -11.02982,-4.65678 -26.60938,-9.50218 -5.78718,-1.79984 -12.62652,-4.21562 -15.1986,-5.36834 -4.4681,-2.00251 -7.30528,-4.25359 -6.44513,-5.11374 0.33615,-0.33615 8.45875,2.55064 14.23927,5.06065 0.85738,0.37229 4.18937,1.45618 7.40446,2.40862 24.72471,7.32452 30.6968,10.22992 40.84509,19.87103 3.38863,3.21928 6.28169,5.73271 6.42898,5.58542 0.22153,-0.22153 -4.96703,-12.28115 -9.46795,-22.00586 -1.15582,-2.49726 -12.60398,-13.93927 -17.91568,-17.90605 -7.34004,-5.48158 -20.23483,-16.80773 -20.53215,-18.03448 -0.49467,-2.04084 1.96512,-0.97869 6.91607,2.98632 2.76492,2.21435 5.2025,4.25005 5.41686,4.52387 0.21446,0.27366 3.37096,2.87948 7.01474,5.79039 3.64374,2.91094 9.54628,7.9416 13.11673,11.17924 5.75654,5.21996 6.86762,6.69013 9.81082,12.98143 7.80162,16.67658 9.81927,21.73016 9.04728,22.66036 -0.54029,0.65103 -0.0551,1.60583 1.62813,3.20305 1.31881,1.25156 4.95189,5.43221 8.07352,9.29029 6.23857,7.71048 9.51361,10.92059 16.06662,15.74812 6.82873,5.03066 11.40972,11.25347 10.46817,14.21997 -0.31187,0.9826 0.20503,1.96277 1.62377,3.0787 1.14474,0.90045 1.86921,1.63717 1.60998,1.63717 -0.25924,0 0.39494,1.27651 1.45373,2.83671 2.36561,3.48593 2.68178,9.13298 0.57729,10.31072 -1.24994,0.69951 -1.25521,0.85785 -0.0725,2.18211 2.03571,2.27936 3.17919,7.87948 2.59041,12.68615 -0.29164,2.38152 -1.73603,8.07531 -3.20953,12.65288 -3.57054,11.09225 -6.87059,26.15104 -12.03229,54.90548 -2.16517,12.06166 -1.54467,17.38991 3.90925,33.56891 2.15991,6.40734 3.9271,12.21844 3.9271,12.91353 0,2.6095 -1.47081,2.02522 -2.95769,-1.17494 z M 236.18358,419.37733 c -2.79579,-1.14935 -6.11626,-3.37132 -8.41673,-5.63226 -35.14219,-34.53835 -43.35634,-43.28546 -46.68998,-49.71952 -3.75503,-7.24739 -7.69303,-20.32633 -11.15508,-37.04848 -1.05725,-5.10675 -3.9129,-14.88328 -5.51307,-18.87451 -0.376,-0.93786 -0.1797,-1.36401 0.62867,-1.36401 2.22306,0 4.39298,5.47157 7.95627,20.06213 5.85921,23.99175 6.44769,26.11634 8.54933,30.86623 3.81139,8.61399 7.24127,12.68921 29.71127,35.30159 22.53199,22.67476 22.53199,22.67476 28.33015,24.53514 3.189,1.0232 5.93645,2.29877 6.10542,2.83461 0.50998,1.61714 -4.45626,1.11511 -9.50625,-0.96092 z m 17.62687,-6.38589 c -3.1347,-1.54482 -5.94911,-4.92824 -13.82499,-16.62017 -7.28949,-10.82144 -11.83675,-16.80938 -16.46086,-21.67605 -6.72831,-7.08128 -10.14428,-14.6358 -13.54031,-29.94478 -0.88357,-3.98302 -1.172,-4.42073 -2.66606,-4.04573 -2.24836,0.5643 -10.55416,-2.59512 -10.55416,-4.01468 0,-1.50184 1.55545,-1.40192 6.78425,0.43583 2.42391,0.85193 4.52292,1.43314 4.6645,1.29157 0.3515,-0.3515 -3.14908,-10.92696 -5.16912,-15.61632 -1.92427,-4.46701 -1.57407,-5.34793 1.11991,-2.81709 2.57377,2.41793 4.41172,7.55491 9.00938,25.18078 4.17926,16.0219 5.87087,19.85308 11.61295,26.30157 7.8307,8.79398 10.01788,11.64073 17.59285,22.89818 8.4145,12.50509 9.40759,13.69252 13.81563,16.51951 4.85565,3.11405 2.99542,4.75841 -2.38397,2.10738 z m -72.28837,-15.29137 c -4.73933,-3.08857 -12.32437,-7.98373 -16.85563,-10.87812 -7.34849,-4.69389 -13.85625,-10.23943 -15.53372,-13.23689 -0.32554,-0.58174 -3.4011,-8.75777 -6.83454,-18.16896 -3.43347,-9.41118 -7.84027,-20.71347 -9.79293,-25.11617 -1.95267,-4.40271 -3.55027,-8.37238 -3.55027,-8.8215 0,-0.44909 1.01492,-0.094 2.2554,0.78945 1.6679,1.18764 3.003,3.58719 5.12508,9.2112 1.57828,4.18286 3.18705,8.30668 3.57505,9.16403 0.38799,0.85735 2.31099,5.94304 4.27335,11.30152 6.74752,18.42513 7.39834,19.96293 9.52663,22.51036 1.17385,1.40507 10.35718,8.0509 20.40741,14.76854 10.05019,6.71768 18.40942,12.65236 18.57604,13.1882 0.67335,2.16559 -2.98907,0.62098 -11.17187,-4.71166 z m 10.8318,2.01848 c -2.50421,-2.01709 -7.03862,-5.78751 -10.07653,-8.37871 -3.03787,-2.5912 -8.92556,-7.51714 -13.08374,-10.94658 -7.55782,-6.23323 -10.19156,-9.29176 -12.4166,-14.41916 -2.83626,-6.53601 -7.8015,-24.39984 -9.09875,-32.73542 -0.50035,-3.2151 -2.1371,-10.12826 -3.63717,-15.36263 -1.83422,-6.4002 -2.4985,-9.92612 -2.02835,-10.7662 0.56731,-1.01375 0.85179,-1.05629 1.50921,-0.22565 1.39089,1.75727 5.69444,17.13415 7.23917,25.86603 1.80031,10.17663 6.62698,27.80562 8.77627,32.05458 2.72916,5.39524 4.40854,7.26103 12.255,13.61534 4.20303,3.40372 8.12139,6.64509 8.70749,7.20306 0.58607,0.55794 4.57297,3.96935 8.85972,7.58089 8.65497,7.29167 9.88075,8.54856 9.28202,9.51733 -0.72621,1.17502 -1.64678,0.73539 -6.28774,-3.00285 z m 208.02827,1.14395 c -1.20363,-1.48891 -7.00036,-19.34788 -7.61898,-23.47312 -1.0336,-6.89257 0.88501,-3.59352 5.59844,9.62644 3.62819,10.17607 4.50219,13.43108 3.76959,14.03907 -0.65795,0.54606 -1.2003,0.48641 -1.74905,-0.19236 z m -39.14002,-12.03768 c -6.19526,-4.72006 -13.42018,-8.82126 -15.54005,-8.82126 -0.73189,0 -2.01155,-0.51944 -2.84366,-1.15432 -1.21665,-0.92826 -1.30664,-1.29027 -0.45951,-1.84859 1.1772,-0.7759 4.58281,-0.11341 8.68925,1.69067 4.98368,2.1893 17.14711,11.34508 17.14711,12.90713 0,1.94153 -1.67767,1.27613 -6.99314,-2.77363 z M 246.0007,364.50861 c -8.73674,-9.55153 -10.16251,-11.75677 -19.96555,-30.88023 -11.78016,-22.98037 -13.07417,-25.08525 -17.7288,-28.83834 -5.49572,-4.43131 -6.1524,-5.10825 -5.68661,-5.86191 0.8707,-1.40881 5.61918,1.24081 9.7326,5.43073 3.3132,3.37476 5.68122,7.10594 10.42644,16.42828 14.33503,28.16233 17.42944,33.28007 24.79747,41.01196 3.11355,3.2673 5.30568,6.24605 5.30568,7.20957 0,0.90304 -0.28427,1.64191 -0.63158,1.64191 -0.34737,0 -3.15972,-2.76388 -6.24965,-6.14197 z m 60.27112,0.88383 c -2.34205,-0.89856 -8.25619,-1.34618 -23.77215,-1.79921 -18.56617,-0.54212 -29.05093,-1.469 -30.25669,-2.67478 -0.23448,-0.23449 -0.0236,-0.82904 0.46883,-1.32132 0.66098,-0.66101 2.68576,-0.68573 7.74217,-0.0946 3.76591,0.44031 13.79513,0.86201 22.28713,0.93707 8.49203,0.0751 17.08508,0.45138 19.09569,0.83623 6.04712,1.15756 9.89091,2.6776 9.89091,3.91143 0,1.56844 -1.73261,1.63357 -5.45589,0.20503 z m 133.75773,-8.57649 c -3.2706,-3.28373 -5.02471,-5.89001 -6.56267,-9.75086 -1.15446,-2.8981 -2.09901,-5.785 -2.09901,-6.41532 0,-0.63035 -0.96452,-1.34957 -2.14338,-1.59826 -1.17886,-0.24862 -3.37099,-1.00532 -4.87135,-1.68138 -5.2418,-2.36196 -23.84161,-2.49538 -49.53001,-0.35527 -11.78885,0.98211 -21.00702,-0.67954 -21.00702,-3.7867 0,-1.31607 0.73569,-1.2807 6.34724,0.30519 3.48785,0.98573 5.76762,0.99085 17.53684,0.0395 27.83897,-2.25046 43.88688,-1.41099 51.98276,2.7192 3.73901,1.9075 4.28634,2.62207 5.97804,7.80459 1.94804,5.96785 3.67344,8.59664 8.16157,12.43478 3.76741,3.22181 4.36888,4.76625 1.85613,4.76625 -0.652,0 -3.19412,-2.01674 -5.64914,-4.48166 z M 202.33067,352.9189 c -5.52453,-5.57499 -9.31483,-12.75378 -12.85998,-24.35671 -9.56369,-31.30119 -13.18278,-38.95997 -20.10065,-42.53731 -1.66601,-0.86154 -2.15387,-1.49156 -1.59095,-2.05448 1.20519,-1.20522 4.44884,-0.11577 7.41834,2.4914 3.84044,3.37193 6.72162,9.89336 13.75188,31.12636 7.54946,22.80117 10.25985,28.349 17.07038,34.94101 4.76312,4.61035 4.9181,4.87135 2.89241,4.87135 -1.57112,0 -3.32144,-1.19188 -6.58143,-4.48162 z m 193.10939,-8.57357 c 1.62271,-2.91418 7.23388,-8.10036 8.3152,-7.68544 1.76923,0.67892 1.35072,1.56414 -2.56451,5.4242 -3.69851,3.64636 -7.31353,5.06784 -5.75069,2.26124 z m -93.06533,-13.39629 c -1.7147,-0.855 -3.42274,-1.56644 -3.7956,-1.58099 -0.37288,-0.0147 -4.93248,-2.56602 -10.13241,-5.66994 -8.67093,-5.17584 -11.73332,-6.53607 -17.86501,-7.9353 -3.12643,-0.71342 -1.81583,-2.01029 2.0264,-2.00516 4.8629,0.006 8.33302,1.20613 13.87148,4.79556 10.80338,7.00153 22.48736,10.9089 28.42283,9.50518 3.83295,-0.90645 3.99783,-2.70815 0.33267,-3.63534 -7.13672,-1.80544 -13.73202,-3.88189 -14.60546,-4.59834 -2.25391,-1.84886 0.17969,-1.88494 5.3707,-0.0795 5.84065,2.03117 15.29496,3.39977 13.14775,1.90324 -0.63423,-0.44205 -2.47708,-1.02739 -4.09522,-1.30079 -4.03718,-0.68207 -2.90935,-1.91776 1.75038,-1.91776 5.43168,0 7.78483,-1.24767 7.78483,-4.12765 0,-2.68438 -3.04327,-5.94955 -5.69091,-6.10592 -0.94246,-0.0557 -4.60712,-0.0206 -8.14372,0.0793 -4.27156,0.11989 -6.43016,-0.10782 -6.43016,-0.67822 0,-0.47221 0.0878,-0.8775 0.19501,-0.9006 0.10723,-0.0236 2.98482,-0.33429 6.39478,-0.6915 5.32369,-0.55767 6.45276,-0.94343 7.98898,-2.72939 2.18235,-2.53711 2.20795,-3.24497 0.23448,-6.48174 -2.57208,-4.21853 -5.75147,-5.63739 -12.64001,-5.64072 -7.40019,-0.003 -15.32291,2.35354 -23.22625,6.91013 -6.05714,3.49221 -6.22634,3.56049 -6.22634,2.51305 0,-1.46348 8.48808,-6.79839 14.89427,-9.36132 1.19391,-0.47766 1.40633,-0.76314 0.59134,-0.79478 -0.69949,-0.0265 -4.79406,1.70428 -9.09902,3.84766 -4.30496,2.1434 -8.20452,3.89708 -8.66572,3.89708 -2.19328,0 -0.18264,-1.63384 7.15048,-5.81013 8.59019,-4.8923 20.5893,-12.62393 21.24949,-13.69214 0.92408,-1.49518 -1.33666,-1.49347 -4.27049,0.003 -4.73376,2.41498 -3.99159,0.13492 0.88357,-2.71434 7.05023,-4.12058 7.46615,-7.66275 0.45757,-3.89673 -5.96717,3.20644 -20.19978,12.07603 -22.07258,13.75539 -2.4268,2.1761 -4.09952,1.83742 -1.99409,-0.40373 1.82064,-1.93796 5.31208,-4.38214 16.76802,-11.73832 7.45669,-4.78814 8.70269,-5.82 10.79699,-8.94139 2.28787,-3.4099 1.44103,-7.35129 -1.23963,-5.76965 -0.58425,0.34469 -3.76526,3.08188 -7.06891,6.08264 -3.30365,3.00073 -6.33578,5.57282 -6.73806,5.71569 -2.0781,0.73816 -0.10163,-2.20727 5.31208,-7.91618 6.72074,-7.08723 11.27165,-14.7007 9.7167,-16.25563 -1.21943,-1.21945 -3.70664,1.04972 -9.13856,8.33741 -4.70453,6.31177 -6.62164,8.19091 -6.62164,6.49049 0,-1.15723 1.7611,-3.95455 4.06464,-6.45629 0.76521,-0.83101 1.39126,-1.8148 1.39126,-2.18615 0,-0.37138 1.36621,-2.68706 3.03602,-5.14596 4.46945,-6.58155 6.12474,-13.37028 3.26005,-13.37028 -1.98507,0 -6.39859,5.25457 -9.57736,11.40244 -1.41037,2.72774 -3.00274,4.96082 -3.53858,4.96241 -1.41508,0.003 -1.23398,-0.81511 1.31042,-5.92811 6.24181,-12.54298 8.23739,-18.41352 8.23739,-24.23237 0,-11.42807 -4.43078,-8.70528 -9.13195,5.61179 -2.21278,6.73879 -4.59318,12.08092 -5.38319,12.08092 -1.10132,0 -0.83535,-1.26158 2.04048,-9.67808 5.01918,-14.68933 4.46112,-18.53315 -2.03695,-14.02999 -6.50369,4.50704 -10.94472,12.20426 -17.74623,30.75783 -6.79689,18.54096 -7.80978,24.14582 -7.858,43.4823 -0.0177,6.76837 -0.28369,9.52625 -0.90134,9.32033 -1.54729,-0.51578 -3.7705,-9.3122 -4.73472,-18.73373 -1.08569,-10.6081 -0.44093,-16.796 3.28886,-31.56434 1.93475,-7.66081 2.1361,-9.29606 1.25321,-10.17895 -0.88292,-0.88289 -1.25607,-0.54159 -2.32287,2.12461 -1.53191,3.82862 -3.2181,4.3229 -2.42473,0.71077 1.89852,-8.64392 -1.37823,-18.60954 -4.31477,-13.12257 -1.33334,2.49134 -2.42515,1.80729 -2.17714,-1.36397 0.20591,-2.63103 0.0518,-2.90399 -1.54075,-2.73434 -1.34159,0.14287 -2.08314,-0.46953 -3.06719,-2.53311 -2.0629,-4.32599 -4.90615,-3.10271 -4.90615,2.11083 0,3.6017 -1.27468,3.88639 -2.15693,0.4817 -1.647,-6.35605 -3.97897,-1.55896 -4.62973,9.5238 -0.79593,13.55519 2.05824,22.91297 14.59141,47.83985 6.91419,13.75144 7.78403,15.83775 6.19311,14.85453 -1.09475,-0.6766 -3.39208,-4.3974 -9.85324,-15.95848 -15.9385,-28.51916 -21.85173,-46.65474 -21.11401,-64.7558 0.31117,-7.63468 0.6877,-9.72615 2.44035,-13.55445 2.24023,-4.8933 4.57677,-7.42538 6.85188,-7.42538 1.9925,0 7.18182,4.86343 9.60956,9.00608 1.38719,2.36702 2.68485,3.58276 4.13638,3.87525 5.31107,1.07013 6.01972,1.58155 8.29165,5.98364 1.47925,2.86619 2.89607,4.57156 4.03569,4.8576 1.81056,0.45442 5.75377,7.50359 5.77763,10.32857 0.006,0.77672 0.30964,1.88191 0.67351,2.45596 0.47074,0.7427 1.5059,-0.49372 3.58898,-4.28679 3.00441,-5.47071 8.97983,-15.15718 9.7792,-15.8526 0.24627,-0.21446 1.44104,-1.79265 2.65481,-3.50738 1.21373,-1.7147 5.21913,-6.01124 8.90085,-9.54782 6.69402,-6.43016 6.69402,-6.43016 11.19685,-6.43016 3.34822,0 4.50286,0.28074 4.50286,1.09537 0,0.60245 1.22735,2.5644 2.72745,4.3599 4.14123,4.95676 5.40387,10.23726 5.31161,22.21396 -0.043,5.57281 0.19442,10.48311 0.5275,10.91179 1.20193,1.54693 4.49111,11.8064 5.45772,17.0235 1.16876,6.30797 0.74014,11.71512 -1.41437,17.84286 -0.86425,2.45802 -1.81701,6.84226 -2.11728,9.74268 -0.89002,8.59773 -1.7994,10.03152 -8.138,12.83125 -3.02032,1.33405 -5.39554,2.52148 -5.27826,2.63878 0.11724,0.11724 2.66446,-0.30448 5.66036,-0.93724 8.97429,-1.89543 19.26675,0.68797 22.81608,5.72682 2.25199,3.1971 2.63913,5.11141 1.79415,8.87207 -0.54077,2.40677 -0.50724,3.53926 0.11636,3.92454 0.54241,0.33526 0.8917,3.3121 0.91674,7.81334 0.0486,8.73094 -1.22246,11.51674 -6.8445,15.00168 -4.93669,3.06009 -14.00212,3.678 -18.80746,1.28196 z m -7.40443,-40.9679 c 0,-0.21445 -0.17528,-0.3897 -0.3897,-0.3897 -0.21446,0 -0.38971,0.17528 -0.38971,0.3897 0,0.21446 0.17528,0.38971 0.38971,0.38971 0.21445,0 0.3897,-0.17528 0.3897,-0.38971 z m 167.96388,40.7593 c -2.32089,-0.81027 -21.30216,-8.82779 -27.27953,-11.52263 -11.83158,-5.33417 -21.02216,-5.95524 -35.254,-2.38228 -21.12477,5.30342 -28.26829,6.48993 -28.26829,4.69522 0,-0.43789 0.78915,-1.13894 1.75367,-1.55789 1.35237,-0.58746 28.79993,-6.99898 29.96241,-6.99898 0.13933,0 -0.14906,-0.64389 -0.64048,-1.4309 -0.9852,-1.57754 -0.0439,-5.66543 1.41658,-6.15226 1.12033,-0.37344 1.69458,3.01617 0.8828,5.21063 -0.64345,1.73939 -0.5863,1.76004 3.05458,1.10412 7.45204,-1.34253 15.87332,-0.31561 23.19565,2.82849 0.85735,0.36814 5.94304,2.42974 11.30152,4.5814 12.6459,5.07779 23.51483,9.67763 24.75914,10.47828 0.54283,0.34928 0.78518,0.96157 0.53856,1.36064 -0.56274,0.91052 -2.4108,0.83765 -5.42261,-0.21387 z m -109.54825,-2.34578 c -4.1795,-1.54609 -6.20077,-5.48615 -3.27204,-6.3782 3.29136,-1.00246 18.03239,-2.79249 19.22565,-2.33459 0.79049,0.30333 1.22208,1.16616 1.08035,2.15964 -0.48479,3.39756 -12.77884,8.12722 -17.03396,6.55315 z m -86.23262,-4.75974 c -0.93863,-0.50753 -3.18476,-3.02621 -4.99134,-5.59706 -5.00604,-7.12372 -6.65979,-8.62541 -12.79146,-11.61536 -3.1122,-1.51757 -5.86406,-3.29484 -6.11528,-3.94952 -0.73439,-1.91375 0.29741,-3.52856 2.25458,-3.52856 3.86639,0 22.91709,17.6601 24.08941,22.33102 0.65981,2.62888 -0.27691,3.53239 -2.44591,2.35948 z m -102.63179,-2.70347 c -2.1927,-3.47344 -6.50532,-12.64596 -9.05501,-19.25909 -3.24715,-8.42209 -3.94478,-9.70288 -6.79082,-12.46691 -1.547,-1.50243 -3.10964,-2.73166 -3.47256,-2.73166 -0.36293,0 -0.65987,-0.52612 -0.65987,-1.16914 0,-1.78337 2.15625,-1.40103 5.44962,0.96629 3.37397,2.42524 4.29409,3.99615 8.15603,13.92442 1.51825,3.90309 4.33914,10.31608 6.26862,14.25111 1.92951,3.93499 3.50817,7.66859 3.50817,8.29687 0,2.01662 -1.48699,1.22514 -3.40418,-1.81189 z m -39.16915,-6.20389 c -1.07664,-2.46489 -2.51567,-5.5065 -3.19784,-6.75913 -1.30411,-2.39471 -1.73184,-7.68638 -0.80815,-9.99828 0.6464,-1.61788 4.9761,-1.83501 6.93033,-0.34752 1.44033,1.09634 3.79593,11.38294 3.79593,16.57633 0,2.56039 -0.37115,3.5952 -1.50759,4.20342 -2.57721,1.37926 -3.19547,0.94343 -5.21268,-3.67482 z m 247.95272,-4.24378 c -0.63388,-7.69563 -0.33627,-11.69994 0.89965,-12.1052 1.17771,-0.38613 1.69117,2.48625 1.97942,11.07352 0.20178,6.01023 0.0524,7.036 -1.05546,7.25257 -1.08504,0.2121 -1.37529,-0.77793 -1.82361,-6.22089 z m -174.33719,4.81568 c -1.95676,-1.16569 -8.4409,-13.5422 -8.42723,-16.08529 0.0177,-3.52385 1.05602,-4.44557 5.06719,-4.50372 l 3.64245,-0.0527 3.19907,8.45618 c 2.99045,7.90467 3.12372,8.59089 2.04334,10.52209 -1.25059,2.23549 -3.45206,2.89836 -5.52482,1.66356 z m 215.20266,-7.24457 c -5.98181,-3.91384 -22.25997,-8.159 -51.39118,-13.40218 -6.21583,-1.11876 -12.31992,-2.53985 -13.56464,-3.15798 -1.24473,-0.61812 -2.57421,-1.12388 -2.95437,-1.12388 -2.01497,0 -9.13283,-6.56332 -9.17705,-8.46208 -0.0336,-1.4443 1.53336,-0.74093 6.40766,2.87615 5.22803,3.87956 6.75191,4.37578 23.18548,7.5497 18.59198,3.5908 24.34069,4.80958 31.17658,6.60974 7.50542,1.97647 16.25604,5.40213 19.01998,7.44588 1.8029,1.33313 1.98145,1.75179 1.06972,2.50845 -0.8557,0.71018 -1.67844,0.52613 -3.77218,-0.8438 z m -276.38091,-6.28685 c -3.17577,-3.6248 -5.41218,-8.95558 -6.2153,-14.81508 -0.66567,-4.85642 0.36107,-5.93509 5.64946,-5.93509 3.98054,0 4.23153,0.12137 5.23755,2.53311 1.59823,3.83139 2.89442,9.85998 3.08254,14.33707 0.12667,3.01643 -0.19943,4.41631 -1.31628,5.65076 -2.11631,2.33889 -3.06639,2.07756 -6.43797,-1.77077 z m 22.79495,-0.68021 c -3.80803,-8.34042 -4.65177,-10.94434 -4.69528,-14.49002 -0.0442,-3.60657 -0.0265,-3.63299 2.72365,-3.86409 4.02935,-0.33868 6.56505,2.3001 7.76512,8.08085 1.02181,4.92206 0.59446,11.52711 -0.85912,13.27858 -1.64604,1.98333 -3.04595,1.13072 -4.93437,-3.00532 z m 72.73332,-4.36297 c -6.90745,-5.23278 -22.08334,-20.22196 -23.6678,-23.37661 -0.7192,-1.4319 -1.11485,-3.10584 -0.87921,-3.71989 0.76176,-1.98513 3.25801,0.40605 6.04644,5.79192 1.88329,3.63765 4.2101,6.44784 8.43082,10.18229 3.20628,2.83691 6.71364,5.97132 7.79413,6.96541 1.0805,0.99407 3.45518,2.89489 5.27706,4.22404 3.12245,2.27798 4.14559,3.71124 2.64932,3.71124 -0.36475,0 -2.90758,-1.70027 -5.65076,-3.7784 z m 1.59151,-4.11634 c -7.90752,-8.0022 -14.18816,-17.93309 -12.44435,-19.6769 1.04703,-1.04703 1.65499,-0.35609 4.71499,5.3583 2.6649,4.97664 8.40522,12.54324 12.37998,16.31869 1.32553,1.25908 2.41006,2.57433 2.41006,2.92282 0,1.59769 -1.98459,0.21386 -7.06068,-4.92291 z m 183.16378,-8.43238 c -1.09623,-0.33267 -4.77895,-0.80241 -8.18384,-1.04388 -3.4049,-0.24156 -14.60841,-1.03516 -24.89668,-1.76378 -10.28828,-0.72859 -19.01556,-1.60809 -19.39401,-1.9544 -0.80392,-0.73572 0.006,-3.33838 0.87741,-2.82251 0.49183,0.29075 6.62465,0.77333 29.81812,2.34567 1.07168,0.0728 2.00628,-0.1794 2.07683,-0.56018 0.0707,-0.38075 0.59664,-0.98184 1.1691,-1.33578 0.8545,-0.52831 0.83152,-0.84681 -0.12814,-1.77898 -1.74245,-1.69226 -32.0983,-16.84744 -33.74548,-16.84744 -0.22536,0 -2.99675,-1.21147 -6.15853,-2.69213 -6.22425,-2.91485 -11.44053,-6.41178 -14.4222,-9.66847 -3.42107,-3.73662 -7.01565,-12.59276 -5.10417,-12.57535 0.68105,0.006 4.09192,4.84773 4.09192,5.80824 0,0.35801 1.23289,2.15549 2.73979,3.99445 3.38926,4.13616 9.55822,7.93851 20.01461,12.33635 10.82041,4.55094 23.33163,10.72005 34.00439,16.76708 6.72047,3.80773 8.74195,5.31664 8.47751,6.32788 -0.28368,1.08462 0.38419,1.41093 3.64586,1.78137 5.86831,0.66649 9.83871,1.99343 9.83871,3.28818 0,1.22237 -1.56125,1.35254 -4.72108,0.39368 z m -10.86719,-4.33884 c 0,-0.50677 -4.85377,-3.48909 -5.68493,-3.493 -1.06032,-0.006 -0.22329,2.69669 1.00844,3.25483 1.40363,0.63603 4.67649,0.80274 4.67649,0.23802 z m -65.08113,1.70392 c -4.00278,-1.82909 -7.50925,-5.24208 -7.25023,-7.057 0.22772,-1.59634 0.57005,-1.64398 10.48856,-1.45951 12.02272,0.22359 15.87812,1.1996 16.96551,4.29498 0.99648,2.83656 -0.1361,3.90948 -4.39846,4.16674 -1.8341,0.11076 -5.61453,0.40873 -8.40095,0.66228 -3.50564,0.31897 -5.78644,0.13197 -7.40443,-0.60749 z m 33.59006,-6.63696 c -0.5613,-0.90816 0.83867,-5.71306 2.20332,-7.56215 0.77354,-1.0481 1.37806,-1.27286 1.93923,-0.72096 0.56675,0.55738 0.41858,2.04266 -0.486,4.87135 -1.19232,3.72844 -2.63114,5.07094 -3.65655,3.41176 z m 15.28762,-31.19864 c -22.73875,-23.21477 -23.87439,-24.6422 -26.13119,-32.84536 -2.24898,-8.17477 -2.27635,-8.56326 -0.60333,-8.56326 1.48402,0 2.48589,2.38208 4.42548,10.52208 0.93456,3.92227 4.33235,8.11777 17.85673,22.04914 11.55704,11.90485 13.85749,14.97307 11.22619,14.97307 -0.42019,0 -3.46843,-2.76106 -6.77388,-6.13567 z m -37.57617,-5.83237 c -5.49277,-1.18602 -14.62994,-6.27183 -15.77227,-8.77896 -0.7044,-1.54602 -0.62687,-2.15863 0.40367,-3.18917 1.12648,-1.12648 1.66651,-1.15346 4.61987,-0.23095 4.78283,1.49397 20.54889,8.96952 21.22539,10.0641 0.9224,1.4925 -1.12282,3.19633 -3.7522,3.12586 -1.34074,-0.0359 -4.36674,-0.48181 -6.72446,-0.99091 z M 380.43786,210.827 c -1.05949,-0.8334 -2.16836,-1.51527 -2.46415,-1.51527 -1.2041,0 -12.74379,-8.67582 -13.91284,-10.45999 -1.13974,-1.73947 -1.14407,-2.03676 -0.0457,-3.13529 2.01317,-2.01317 3.51869,-1.46416 10.0491,3.66454 3.6421,2.86033 10.53853,10.44847 10.53853,11.59551 0,1.30102 -2.43204,1.21374 -4.16513,-0.14935 z"
           id="path1"
           inkscape:label="path1"
           sodipodi:nodetypes="ssssscsssssssssssccssssscssssssssssssssssssscsssssssssssssssssssssssssssssssscsssscssssssssssssssssssssssssssssssscsssssssssssssssscsssssssssssssscsssssssssssssssssscsssssssssssscsscsccsccssssssssssssssscssccssscssssccsscsssscssssscscssscssscsscsccssssssscssssssssscssssssscssssssssssssssssssssssscsscsssssccsscssssscssccssssssssssscsssssssssssscsscsssssssssssssssssssscssssssccccssccsssscssssssssssscssscssscscsssssccsssscscsscccscssscscsssssssccsccccsscscssssscssssscsssssssscsscsscc" />
        <path
           style="fill:#ffb2cb;fill-opacity:1;stroke-width:0.281502"
           d="m 139.80468,303.6202 c -4.28329,-3.7703 -8.04831,-12.25558 -8.17739,-18.42955 -0.038,-1.82099 0.0362,-2.14936 0.62787,-2.77982 0.88878,-0.94685 3.15253,-1.40109 6.18843,-1.24172 2.22088,0.11665 2.42143,0.1791 3.0319,0.94463 0.71945,0.90231 2.40269,5.8859 3.04344,9.01082 0.22477,1.0962 0.55476,3.38808 0.73327,5.09309 0.4285,4.09254 0.0972,5.84739 -1.40153,7.42287 -1.42589,1.49893 -2.32516,1.49442 -4.04599,-0.0206 z"
           id="path2" />
        <path
           style="fill:#ffb2cb;fill-opacity:1;stroke-width:0.563005"
           d="m 127.4913,317.98543 c -0.31415,-0.38705 -1.7548,-3.23725 -3.20146,-6.33378 -4.81606,-10.3086 -3.99011,-16.20153 2.01847,-14.40131 2.03801,0.61058 2.22159,0.8582 3.28283,4.4275 1.2244,4.11802 2.2635,10.03606 2.27022,12.92959 0.006,2.91418 -2.91409,5.17197 -4.37006,3.378 z"
           id="path3" />
        <path
           style="fill:#ffb2cb;fill-opacity:1;stroke-width:0.563005"
           d="m 160.86961,300.69152 c -2.87479,-5.70861 -4.88543,-12.08089 -4.68409,-14.84528 0.16674,-2.28896 0.22359,-2.34911 2.38485,-2.52565 2.83123,-0.23125 4.38986,0.62277 5.83764,3.19871 3.21698,5.72391 2.71207,18.09479 -0.73857,18.09479 -0.45602,0 -1.70719,-1.75288 -2.79983,-3.92257 z"
           id="path4" />
        <path
           style="fill:#ffb2cb;fill-opacity:1;stroke-width:0.562652;stroke-dasharray:none"
           d="m 198.85112,314.3702 c -2.18948,-1.84234 -7.87008,-13.16127 -7.87008,-15.68163 0,-2.51676 1.65231,-3.64554 5.3363,-3.64554 h 2.83373 l 2.74141,7.55836 c 2.97348,8.19818 3.24358,9.94022 1.79008,11.54631 -1.53783,1.69927 -2.99654,1.76646 -4.83144,0.22241 z"
           id="path5" />
        <path
           style="fill:#ffb2cb;fill-opacity:1;stroke-width:0.563005"
           d="m 341.43877,280.64855 c -2.98576,-1.48784 -6.32868,-4.73599 -6.32868,-6.14925 0,-1.26113 3.42526,-1.60356 11.76263,-1.17591 9.0333,0.46338 12.27093,1.09022 13.99459,2.7095 1.41379,1.32819 1.65773,3.34687 0.5187,4.29218 -0.67442,0.55971 -11.03413,1.75203 -15.32754,1.76405 -0.94558,0.002 -3.02445,-0.64561 -4.6197,-1.44057 z"
           id="path6" />
        <path
           style="fill:#ffb2cb;fill-opacity:1;stroke-width:0.563005"
           d="m 355.49022,237.90721 c -6.55731,-1.2059 -15.16049,-5.69786 -17.36938,-9.06908 -0.84283,-1.2863 -0.83443,-1.46475 0.11813,-2.51735 0.79007,-0.87306 1.42053,-1.04662 2.74845,-0.7567 3.52582,0.76983 19.26242,7.92676 21.99136,10.00159 1.00067,0.76082 1.03201,0.94982 0.28162,1.69797 -1.30541,1.30135 -3.29649,1.46625 -7.7701,0.64357 z"
           id="path7" />
        <path
           style="fill:#ffb2cb;fill-opacity:1;stroke-width:0.563005"
           d="m 377.96617,208.91101 c -7.36835,-4.38344 -14.14285,-10.11091 -14.14285,-11.95702 0,-1.51948 2.3429,-2.41581 4.01056,-1.5343 4.34464,2.29656 16.25756,13.65505 16.25756,15.50093 0,1.31955 -1.17965,0.93253 -6.12527,-2.00961 z"
           id="path8" />
        <path
           style="fill:#ffb2cb;fill-opacity:1;stroke-width:0.563005"
           d="m 351.1753,326.51293 c -2.64276,-2.32036 -2.60517,-3.68018 0.12107,-4.38547 3.20691,-0.82958 10.09229,-1.72563 14.49738,-1.88668 3.65983,-0.13374 3.95335,-0.0575 4.11395,1.06948 0.23685,1.66256 -2.77452,3.87063 -7.60265,5.57449 -5.49493,1.9392 -8.6165,1.83492 -11.12984,-0.37182 z"
           id="path9" />
        <path
           style="fill:none;fill-opacity:1;stroke-width:0.0497628"
           d="m 200.43762,315.83109 c -0.68428,-0.13551 -1.34111,-0.43218 -1.74531,-0.78795 -1.79332,-1.57854 -6.59651,-10.43833 -7.83847,-14.45855 -0.25952,-0.84029 -0.31164,-1.2044 -0.27396,-1.91711 0.10988,-2.08143 0.64181,-3.03505 1.96065,-3.51501 0.8932,-0.32507 1.58473,-0.39215 4.43861,-0.43068 l 2.26422,-0.0306 0.91515,2.43213 c 0.50335,1.3377 1.5181,4.0333 2.25502,5.99021 2.73811,7.27116 3.0167,8.41293 2.39519,9.81656 -0.8114,1.83248 -2.07177,2.85721 -3.6246,2.94697 -0.23596,0.0147 -0.53996,-0.006 -0.74644,-0.046 z m 1.66781,-0.4852 c 0.45731,-0.16792 0.85261,-0.44158 1.34883,-0.93368 0.50132,-0.49714 0.79967,-0.93571 0.94705,-1.3922 0.13256,-0.41058 0.1797,-1.40919 0.0949,-2.00566 -0.18412,-1.29412 -0.73543,-3.21082 -1.77112,-6.15906 -0.37594,-1.07021 -3.40168,-9.4346 -3.53527,-9.77293 -0.0359,-0.0907 -0.10841,-0.0931 -2.05698,-0.0651 -2.71534,0.0392 -3.41503,0.14257 -4.47579,0.66201 -0.8018,0.39268 -1.34745,1.05287 -1.57914,1.91048 -0.0613,0.22713 -0.0881,0.51643 -0.0898,0.97039 -0.002,0.54969 0.0177,0.72169 0.1308,1.14453 1.01315,3.78385 5.35276,12.21264 7.40034,14.37366 0.63524,0.67044 1.61725,1.25539 2.3416,1.39484 0.28604,0.0551 0.92643,-0.0118 1.24485,-0.12755 z"
           id="path10" />
      </g>
    </g>
  </g>
</svg>
